<svg width="918" height="219" viewBox="0 0 918 219" fill="none" xmlns="http://www.w3.org/2000/svg">
<path d="M17.0167 70.6193V183.271C17.0167 191.439 13.5711 195.522 3.93774 195.522C2.67204 195.522 1.54697 195.522 0 195.381V218.827C2.32045 218.968 3.93774 218.968 5.55503 218.968C31.5019 219.672 46.9716 208.829 46.9716 183.764V70.6193H17.0167ZM31.9238 56.6786C40.8541 56.6786 48.167 49.8491 48.167 41.4706C48.167 33.1625 40.8541 26.333 31.9238 26.333C23.0639 26.333 15.751 33.1625 15.751 41.4706C15.751 49.8491 23.0639 56.6786 31.9238 56.6786Z" fill="#FCEBED"/>
<path d="M116.989 180.877C143.709 180.877 161.71 167.852 165.929 147.786L138.224 145.955C135.201 154.193 127.466 158.488 117.481 158.488C102.504 158.488 93.0107 148.56 93.0107 132.437V132.367H166.562V124.129C166.562 87.3763 144.342 69.2111 115.793 69.2111C84.0102 69.2111 63.4074 91.8119 63.4074 125.185C63.4074 159.474 83.7289 180.877 116.989 180.877ZM93.0107 113.779C93.6436 101.458 102.996 91.6007 116.286 91.6007C129.294 91.6007 138.295 100.895 138.365 113.779H93.0107Z" fill="#FCEBED"/>
<path d="M182.91 178.765H212.865V117.581C212.865 104.274 222.569 95.1211 235.788 95.1211C239.937 95.1211 245.633 95.8252 248.445 96.7405V70.1264C245.773 69.4928 242.046 69.0703 239.023 69.0703C226.928 69.0703 217.014 76.1111 213.076 89.4885H211.951V70.6193H182.91V178.765Z" fill="#FCEBED"/>
<path d="M260.732 178.765H290.687V144.406L298.774 135.183L328.236 178.765H363.324L321.205 117.44L361.285 70.6193H326.9L292.305 111.667H290.687V34.5707H260.732V178.765Z" fill="#FCEBED"/>
<path d="M438.57 1.82647C444.955 1.82647 449.971 3.42463 453.619 6.62094C457.42 9.66505 459.32 13.9268 459.32 19.4062C459.32 24.8856 457.42 29.2234 453.619 32.4197C449.971 35.4639 444.955 36.9859 438.57 36.9859C432.186 36.9859 427.094 35.4639 423.293 32.4197C419.645 29.2234 417.821 24.8856 417.821 19.4062C417.821 13.9268 419.645 9.66505 423.293 6.62094C427.094 3.42463 432.186 1.82647 438.57 1.82647ZM456.355 157.533C456.355 163.773 457.42 168.111 459.548 170.546C461.828 172.829 465.628 173.971 470.948 173.971V178.765C455.747 178.156 445.639 177.852 440.622 177.852C435.91 177.852 425.346 178.156 408.929 178.765V173.971C414.401 173.971 418.201 172.829 420.329 170.546C422.457 168.111 423.521 163.773 423.521 157.533V85.6155C423.521 78.6141 422.457 73.5152 420.329 70.3189C418.201 67.1226 414.401 65.5244 408.929 65.5244V60.7299C413.793 61.1866 418.505 61.4149 423.065 61.4149C436.594 61.4149 447.691 60.3494 456.355 58.2186V157.533Z" fill="#FCEBED"/>
<path d="M562.472 57.5336C574.025 57.5336 582.385 60.5016 587.553 66.4376C590.138 69.3295 591.962 73.0586 593.026 77.6247C594.09 82.1909 594.622 88.3552 594.622 96.1177V157.533C594.622 163.773 595.686 168.111 597.814 170.546C600.094 172.829 603.894 173.971 609.215 173.971V178.765C594.014 178.156 583.981 177.852 579.117 177.852C574.557 177.852 564.676 178.156 549.475 178.765V173.971C554.035 173.971 557.228 172.829 559.052 170.546C560.876 168.111 561.788 163.773 561.788 157.533V86.5288C561.788 80.2883 560.724 75.57 558.596 72.3737C556.619 69.1773 552.971 67.5792 547.651 67.5792C541.419 67.5792 536.098 70.1667 531.69 75.3417C527.282 80.3644 525.078 86.6049 525.078 94.0629V157.533C525.078 163.773 525.99 168.111 527.814 170.546C529.638 172.829 532.83 173.971 537.39 173.971V178.765C523.405 178.156 513.981 177.852 509.117 177.852C504.556 177.852 494.068 178.156 477.651 178.765V173.971C483.123 173.971 486.923 172.829 489.051 170.546C491.18 168.111 492.244 163.773 492.244 157.533V85.6155C492.244 78.6141 491.18 73.5152 489.051 70.3189C486.923 67.1226 483.123 65.5244 477.651 65.5244V60.7299C482.515 61.1866 487.227 61.4149 491.788 61.4149C505.316 61.4149 516.413 60.3494 525.078 58.2186V78.7663C531.918 64.6112 544.383 57.5336 562.472 57.5336Z" fill="#FCEBED"/>
<path d="M726.693 153.651C726.693 160.653 727.757 165.752 729.885 168.948C732.013 172.144 735.813 173.742 741.286 173.742V178.537C736.573 178.08 731.861 177.852 727.149 177.852C713.62 177.852 702.523 178.917 693.859 181.048V161.414C688.69 175.112 678.81 181.962 664.217 181.962C649.928 181.962 638.527 176.787 630.015 166.437C621.654 155.934 617.55 140.181 617.702 119.177C617.702 105.783 619.83 94.5195 624.086 85.3872C628.495 76.1027 634.499 69.1773 642.099 64.6112C649.852 59.8928 658.668 57.5336 668.549 57.5336C679.646 57.5336 688.082 60.4255 693.859 66.2093V27.397C693.859 20.3955 692.719 15.2966 690.438 12.1003C688.31 8.90402 684.586 7.30586 679.266 7.30586V2.5114C684.13 2.96801 688.842 3.19631 693.403 3.19631C706.627 3.19631 717.724 2.13087 726.693 0V153.651ZM673.565 172.144C678.582 172.144 682.99 170.318 686.79 166.665C690.742 163.012 693.099 158.065 693.859 151.825V71.917C690.058 66.7421 684.51 64.1546 677.214 64.1546C669.157 64.1546 662.925 68.7968 658.516 78.0814C654.108 87.3659 651.98 101.217 652.132 119.633C651.98 138.202 653.728 151.597 657.376 159.816C661.177 168.035 666.573 172.144 673.565 172.144Z" fill="#FCEBED"/>
<path d="M777.225 1.82647C783.61 1.82647 788.626 3.42463 792.274 6.62094C796.075 9.66505 797.975 13.9268 797.975 19.4062C797.975 24.8856 796.075 29.2234 792.274 32.4197C788.626 35.4639 783.61 36.9859 777.225 36.9859C770.841 36.9859 765.749 35.4639 761.948 32.4197C758.3 29.2234 756.476 24.8856 756.476 19.4062C756.476 13.9268 758.3 9.66505 761.948 6.62094C765.749 3.42463 770.841 1.82647 777.225 1.82647ZM795.01 157.533C795.01 163.773 796.075 168.111 798.203 170.546C800.483 172.829 804.283 173.971 809.603 173.971V178.765C794.402 178.156 784.294 177.852 779.278 177.852C774.565 177.852 764.001 178.156 747.584 178.765V173.971C753.056 173.971 756.856 172.829 758.984 170.546C761.112 168.111 762.176 163.773 762.176 157.533V85.6155C762.176 78.6141 761.112 73.5152 758.984 70.3189C756.856 67.1226 753.056 65.5244 747.584 65.5244V60.7299C752.448 61.1866 757.16 61.4149 761.72 61.4149C775.249 61.4149 786.346 60.3494 795.01 58.2186V157.533Z" fill="#FCEBED"/>
<path d="M883.342 163.24C895.807 163.24 905.839 157.152 913.44 144.976L917.544 146.345C914.504 156.239 909.031 164.686 901.127 171.688C893.374 178.537 883.646 181.962 871.941 181.962C855.828 181.962 842.983 176.863 833.407 166.665C823.982 156.315 819.27 141.094 819.27 121.003C819.27 100.456 824.362 84.7784 834.547 73.9718C844.731 63.013 858.26 57.5336 875.133 57.5336C903.711 57.5336 918 74.4284 918 108.218H853.928C853.776 110.501 853.7 114.078 853.7 118.948C853.7 128.994 855.068 137.365 857.804 144.062C860.692 150.759 864.341 155.63 868.749 158.674C873.309 161.718 878.174 163.24 883.342 163.24ZM873.765 62.3281C868.293 62.3281 863.733 65.7527 860.084 72.602C856.588 79.299 854.384 89.7251 853.472 103.88H889.27C889.574 91.8559 888.358 81.9626 885.622 74.2001C883.038 66.2854 879.086 62.3281 873.765 62.3281Z" fill="#FCEBED"/>
</svg>
