<svg width="1182" height="400" viewBox="0 0 1182 400" fill="none" xmlns="http://www.w3.org/2000/svg">
<rect width="1182" height="400" fill="#0D2D5C"/>
<path d="M149.017 161.619V274.271C149.017 282.439 145.571 286.522 135.938 286.522C134.672 286.522 133.547 286.522 132 286.381V309.827C134.32 309.968 135.938 309.968 137.555 309.968C163.502 310.672 178.972 299.829 178.972 274.764V161.619H149.017ZM163.924 147.679C172.854 147.679 180.167 140.849 180.167 132.471C180.167 124.163 172.854 117.333 163.924 117.333C155.064 117.333 147.751 124.163 147.751 132.471C147.751 140.849 155.064 147.679 163.924 147.679Z" fill="#FCEBED"/>
<path d="M248.989 271.877C275.709 271.877 293.71 258.852 297.929 238.786L270.224 236.955C267.201 245.193 259.466 249.488 249.481 249.488C234.504 249.488 225.011 239.56 225.011 223.437V223.367H298.562V215.129C298.562 178.376 276.342 160.211 247.793 160.211C216.01 160.211 195.407 182.812 195.407 216.185C195.407 250.474 215.729 271.877 248.989 271.877ZM225.011 204.779C225.644 192.458 234.996 182.601 248.286 182.601C261.294 182.601 270.295 191.895 270.365 204.779H225.011Z" fill="#FCEBED"/>
<path d="M314.91 269.765H344.865V208.581C344.865 195.274 354.569 186.121 367.788 186.121C371.937 186.121 377.633 186.825 380.445 187.74V161.126C377.773 160.493 374.046 160.07 371.023 160.07C358.928 160.07 349.014 167.111 345.076 180.488H343.951V161.619H314.91V269.765Z" fill="#FCEBED"/>
<path d="M392.732 269.765H422.687V235.406L430.774 226.183L460.236 269.765H495.324L453.205 208.44L493.285 161.619H458.9L424.305 202.667H422.687V125.571H392.732V269.765Z" fill="#FCEBED"/>
<path d="M570.57 92.8265C576.955 92.8265 581.971 94.4246 585.619 97.6209C589.42 100.665 591.32 104.927 591.32 110.406C591.32 115.886 589.42 120.223 585.619 123.42C581.971 126.464 576.955 127.986 570.57 127.986C564.186 127.986 559.094 126.464 555.293 123.42C551.645 120.223 549.821 115.886 549.821 110.406C549.821 104.927 551.645 100.665 555.293 97.6209C559.094 94.4246 564.186 92.8265 570.57 92.8265ZM588.355 248.533C588.355 254.773 589.42 259.111 591.548 261.546C593.828 263.829 597.628 264.971 602.948 264.971V269.765C587.747 269.156 577.639 268.852 572.622 268.852C567.91 268.852 557.346 269.156 540.929 269.765V264.971C546.401 264.971 550.201 263.829 552.329 261.546C554.457 259.111 555.521 254.773 555.521 248.533V176.616C555.521 169.614 554.457 164.515 552.329 161.319C550.201 158.123 546.401 156.524 540.929 156.524V151.73C545.793 152.187 550.505 152.415 555.065 152.415C568.594 152.415 579.691 151.349 588.355 149.219V248.533Z" fill="#FCEBED"/>
<path d="M694.472 148.534C706.025 148.534 714.385 151.502 719.553 157.438C722.138 160.33 723.962 164.059 725.026 168.625C726.09 173.191 726.622 179.355 726.622 187.118V248.533C726.622 254.773 727.686 259.111 729.814 261.546C732.094 263.829 735.894 264.971 741.215 264.971V269.765C726.014 269.156 715.981 268.852 711.117 268.852C706.557 268.852 696.676 269.156 681.475 269.765V264.971C686.035 264.971 689.228 263.829 691.052 261.546C692.876 259.111 693.788 254.773 693.788 248.533V177.529C693.788 171.288 692.724 166.57 690.596 163.374C688.619 160.177 684.971 158.579 679.651 158.579C673.419 158.579 668.098 161.167 663.69 166.342C659.282 171.364 657.078 177.605 657.078 185.063V248.533C657.078 254.773 657.99 259.111 659.814 261.546C661.638 263.829 664.83 264.971 669.39 264.971V269.765C655.405 269.156 645.981 268.852 641.117 268.852C636.556 268.852 626.068 269.156 609.651 269.765V264.971C615.123 264.971 618.923 263.829 621.051 261.546C623.18 259.111 624.244 254.773 624.244 248.533V176.616C624.244 169.614 623.18 164.515 621.051 161.319C618.923 158.123 615.123 156.524 609.651 156.524V151.73C614.515 152.187 619.227 152.415 623.788 152.415C637.316 152.415 648.413 151.349 657.078 149.219V169.766C663.918 155.611 676.383 148.534 694.472 148.534Z" fill="#FCEBED"/>
<path d="M858.693 244.651C858.693 251.653 859.757 256.752 861.885 259.948C864.013 263.144 867.813 264.742 873.286 264.742V269.537C868.573 269.08 863.861 268.852 859.149 268.852C845.62 268.852 834.523 269.917 825.859 272.048V252.414C820.69 266.112 810.81 272.962 796.217 272.962C781.928 272.962 770.527 267.787 762.015 257.437C753.654 246.934 749.55 231.181 749.702 210.177C749.702 196.783 751.83 185.52 756.086 176.387C760.495 167.103 766.499 160.177 774.099 155.611C781.852 150.893 790.668 148.534 800.549 148.534C811.646 148.534 820.082 151.426 825.859 157.209V118.397C825.859 111.396 824.719 106.297 822.438 103.1C820.31 99.904 816.586 98.3059 811.266 98.3059V93.5114C816.13 93.968 820.842 94.1963 825.403 94.1963C838.627 94.1963 849.724 93.1309 858.693 91V244.651ZM805.565 263.144C810.582 263.144 814.99 261.318 818.79 257.665C822.742 254.012 825.099 249.065 825.859 242.825V162.917C822.058 157.742 816.51 155.155 809.214 155.155C801.157 155.155 794.925 159.797 790.516 169.081C786.108 178.366 783.98 192.217 784.132 210.633C783.98 229.202 785.728 242.597 789.376 250.816C793.177 259.035 798.573 263.144 805.565 263.144Z" fill="#FCEBED"/>
<path d="M909.225 92.8265C915.61 92.8265 920.626 94.4246 924.274 97.6209C928.075 100.665 929.975 104.927 929.975 110.406C929.975 115.886 928.075 120.223 924.274 123.42C920.626 126.464 915.61 127.986 909.225 127.986C902.841 127.986 897.749 126.464 893.948 123.42C890.3 120.223 888.476 115.886 888.476 110.406C888.476 104.927 890.3 100.665 893.948 97.6209C897.749 94.4246 902.841 92.8265 909.225 92.8265ZM927.01 248.533C927.01 254.773 928.075 259.111 930.203 261.546C932.483 263.829 936.283 264.971 941.603 264.971V269.765C926.402 269.156 916.294 268.852 911.278 268.852C906.565 268.852 896.001 269.156 879.584 269.765V264.971C885.056 264.971 888.856 263.829 890.984 261.546C893.112 259.111 894.176 254.773 894.176 248.533V176.616C894.176 169.614 893.112 164.515 890.984 161.319C888.856 158.123 885.056 156.524 879.584 156.524V151.73C884.448 152.187 889.16 152.415 893.72 152.415C907.249 152.415 918.346 151.349 927.01 149.219V248.533Z" fill="#FCEBED"/>
<path d="M1015.34 254.24C1027.81 254.24 1037.84 248.152 1045.44 235.976L1049.54 237.345C1046.5 247.239 1041.03 255.686 1033.13 262.688C1025.37 269.537 1015.65 272.962 1003.94 272.962C987.828 272.962 974.983 267.863 965.407 257.665C955.982 247.315 951.27 232.094 951.27 212.003C951.27 191.456 956.362 175.778 966.547 164.972C976.731 154.013 990.26 148.534 1007.13 148.534C1035.71 148.534 1050 165.428 1050 199.218H985.928C985.776 201.501 985.7 205.078 985.7 209.948C985.7 219.994 987.068 228.365 989.804 235.062C992.692 241.759 996.341 246.63 1000.75 249.674C1005.31 252.718 1010.17 254.24 1015.34 254.24ZM1005.77 153.328C1000.29 153.328 995.733 156.753 992.084 163.602C988.588 170.299 986.384 180.725 985.472 194.88H1021.27C1021.57 182.856 1020.36 172.963 1017.62 165.2C1015.04 157.285 1011.09 153.328 1005.77 153.328Z" fill="#FCEBED"/>
</svg>
